<svg fill="#000000" xmlns="http://www.w3.org/2000/svg"  viewBox="0 0 50 50" width="100px" height="100px"><path d="M14 21A1 1 0 1 0 14 23A1 1 0 1 0 14 21Z"/><path fill="none" stroke="#000000" stroke-miterlimit="10" stroke-width="2" d="M18.744,20c-0.618-1.748-2.285-3-4.244-3c-2.485,0-4.5,2.015-4.5,4.5c0,1.56,0.794,2.935,2,3.742"/><path fill="none" stroke="#000000" stroke-miterlimit="10" stroke-width="2" d="M23.5 17A5.5 5.5 0 1 0 23.5 28A5.5 5.5 0 1 0 23.5 17Z"/><path d="M25 22A1 1 0 1 0 25 24A1 1 0 1 0 25 22Z"/><path fill="none" stroke="#000000" stroke-linecap="round" stroke-linejoin="round" stroke-miterlimit="10" stroke-width="2" d="M13 17v-1c0-1.125 1-2 1-2S16.568 4 25 4c0 0 14 .079 14 11 0 2.017 0 4.244-1 7 0 0-.246.85-.565 2M11.536 29.486c0 0-.848.701-1.536 2.514-.266.701-2 2.438-2 4 0 0 1.438 3 7 3s7-1 7-1"/><path fill="none" stroke="#000000" stroke-linecap="round" stroke-linejoin="round" stroke-miterlimit="10" stroke-width="2" d="M40 28L40 22 37 27 37 21 34 26M17 45L17 46M33.897 31c0 0 .448-1 2-1C37.449 30 38 30.95 38 32.532 38 33.387 36.791 35 34.748 35c0 0 .329 7.586 1.252 11"/><path fill="none" stroke="#000000" stroke-miterlimit="10" stroke-width="2" d="M12,38c0,0-0.5,2.938,2,4c0.438,0.813,1.25,3,6,3c7,0,7-6,7-6s0.576-4.227-4-7c-3.197-1.938-8.302-2-8.302-2H13.5c-1.375,0-2.5-1.125-2.5-2.5v0c0-1.375,1.125-2.5,2.5-2.5h5.234"/></svg>