<svg fill="#000000" xmlns="http://www.w3.org/2000/svg"  viewBox="0 0 50 50" width="50px" height="50px"><path d="M 25 3 C 20.390625 3 17.3125 5.78125 15.511719 8.4375 C 13.847656 10.890625 13.21875 13.121094 13.121094 13.488281 C 12.808594 13.769531 12 14.566406 12 16 L 12 16.609375 C 10.222656 17.523438 9 19.375 9 21.5 C 9 23.046875 9.648438 24.445313 10.6875 25.449219 C 10.261719 26.027344 10 26.734375 10 27.5 L 10 28.5 L 10.203125 28.5 C 10.277344 28.730469 10.375 28.945313 10.488281 29.15625 C 10.398438 29.253906 10.320313 29.332031 10.222656 29.46875 C 9.871094 29.9375 9.441406 30.652344 9.0625 31.644531 C 9.078125 31.609375 8.945313 31.855469 8.757813 32.125 C 8.566406 32.402344 8.3125 32.742188 8.0625 33.128906 C 7.558594 33.90625 7 34.847656 7 36 C 7 36.148438 7.035156 36.296875 7.097656 36.433594 C 7.097656 36.433594 7.609375 37.445313 8.835938 38.3125 C 9.394531 38.714844 10.125 39.097656 11.027344 39.402344 C 11.046875 39.539063 11.054688 39.667969 11.085938 39.8125 C 11.289063 40.753906 11.972656 41.851563 13.175781 42.578125 C 13.363281 42.9375 13.785156 43.84375 14.777344 44.597656 C 15.117188 44.859375 15.527344 45.089844 16 45.296875 L 16 46 C 15.996094 46.359375 16.183594 46.695313 16.496094 46.878906 C 16.808594 47.058594 17.191406 47.058594 17.503906 46.878906 C 17.816406 46.695313 18.003906 46.359375 18 46 L 18 45.847656 C 18.597656 45.941406 19.257813 46 20 46 C 23.785156 46 25.96875 44.253906 26.988281 42.503906 C 27.957031 40.84375 27.988281 39.277344 27.988281 39.109375 C 27.992188 39.089844 28.15625 37.832031 27.671875 36.25 C 27.183594 34.652344 26.015625 32.65625 23.515625 31.144531 C 19.925781 28.96875 14.710938 29 14.710938 29 L 13.5 29 C 12.671875 29 12 28.328125 12 27.5 C 12 26.671875 12.671875 26 13.5 26 L 18.035156 26 C 19.195313 27.800781 21.210938 29 23.5 29 C 27.078125 29 30 26.078125 30 22.5 C 30 18.921875 27.078125 16 23.5 16 C 21.640625 16 19.960938 16.792969 18.773438 18.058594 C 17.761719 16.804688 16.222656 16 14.5 16 C 14.332031 16 14.164063 16.011719 14 16.027344 L 14 16 C 14 15.46875 14.65625 14.75 14.65625 14.75 C 14.808594 14.621094 14.917969 14.445313 14.96875 14.25 C 14.96875 14.25 15.578125 11.902344 17.167969 9.5625 C 18.753906 7.222656 21.175781 5.003906 24.996094 5 C 24.996094 5 28.34375 5.03125 31.632813 6.335938 C 33.277344 6.984375 34.878906 7.945313 36.050781 9.320313 C 37.222656 10.699219 38 12.484375 38 15 C 38 16.605469 37.992188 18.238281 37.515625 20.144531 C 37.351563 20.042969 37.164063 19.996094 36.96875 20 C 36.628906 20.011719 36.316406 20.195313 36.140625 20.484375 L 33.140625 25.484375 C 32.945313 25.792969 32.929688 26.183594 33.101563 26.503906 C 33.277344 26.828125 33.613281 27.027344 33.976563 27.03125 C 34.34375 27.03125 34.679688 26.832031 34.859375 26.515625 L 36 24.609375 L 36 27 C 36 27.449219 36.300781 27.84375 36.734375 27.960938 C 37.167969 28.082031 37.625 27.898438 37.859375 27.515625 L 39 25.609375 L 39 28 C 38.996094 28.359375 39.183594 28.695313 39.496094 28.878906 C 39.808594 29.058594 40.191406 29.058594 40.503906 28.878906 C 40.816406 28.695313 41.003906 28.359375 41 28 L 41 22 C 41 21.589844 40.75 21.222656 40.371094 21.074219 C 39.992188 20.921875 39.558594 21.015625 39.277344 21.3125 C 39.996094 18.851563 40 16.773438 40 15 C 40 12.054688 39.027344 9.734375 37.574219 8.023438 C 36.121094 6.316406 34.222656 5.207031 32.367188 4.476563 C 28.65625 3.007813 25.003906 3 25.003906 3 C 25.003906 3 25 3 25 3 Z M 14.5 18 C 15.835938 18 16.988281 18.746094 17.578125 19.835938 C 17.210938 20.648438 17 21.550781 17 22.5 C 17 23.015625 17.070313 23.515625 17.183594 24 L 13.5 24 C 13.082031 24 12.683594 24.085938 12.3125 24.222656 C 11.515625 23.585938 11 22.609375 11 21.5 C 11 19.554688 12.554688 18 14.5 18 Z M 23.5 18 C 25.996094 18 28 20.003906 28 22.5 C 28 24.996094 25.996094 27 23.5 27 C 21.003906 27 19 24.996094 19 22.5 C 19 20.003906 21.003906 18 23.5 18 Z M 14 21 C 13.449219 21 13 21.449219 13 22 C 13 22.550781 13.449219 23 14 23 C 14.550781 23 15 22.550781 15 22 C 15 21.449219 14.550781 21 14 21 Z M 25 22 C 24.449219 22 24 22.449219 24 23 C 24 23.550781 24.449219 24 25 24 C 25.550781 24 26 23.550781 26 23 C 26 22.449219 25.550781 22 25 22 Z M 35.894531 29 C 34.90625 29 34.148438 29.34375 33.683594 29.726563 C 33.214844 30.109375 32.984375 30.59375 32.984375 30.59375 C 32.757813 31.097656 32.984375 31.6875 33.488281 31.914063 C 33.992188 32.140625 34.585938 31.914063 34.8125 31.40625 C 34.8125 31.40625 34.800781 31.390625 34.949219 31.273438 C 35.09375 31.15625 35.335938 31 35.894531 31 C 36.46875 31 36.605469 31.109375 36.734375 31.28125 C 36.863281 31.449219 37 31.855469 37 32.53125 C 37 32.488281 36.859375 32.988281 36.464844 33.347656 C 36.070313 33.710938 35.507813 34 34.75 34 C 34.476563 34 34.214844 34.109375 34.023438 34.308594 C 33.835938 34.503906 33.738281 34.769531 33.75 35.042969 C 33.75 35.042969 34.03125 42.546875 35.035156 46.261719 C 35.121094 46.617188 35.390625 46.894531 35.742188 46.992188 C 36.09375 47.085938 36.46875 46.984375 36.722656 46.726563 C 36.976563 46.464844 37.070313 46.085938 36.964844 45.738281 C 36.207031 42.933594 35.871094 37.058594 35.804688 35.796875 C 36.597656 35.601563 37.3125 35.285156 37.8125 34.824219 C 38.535156 34.164063 39 33.429688 39 32.53125 C 39 31.625 38.859375 30.765625 38.328125 30.066406 C 37.792969 29.367188 36.875 29 35.894531 29 Z M 11.890625 30.589844 C 12.367188 30.847656 12.914063 31 13.5 31 L 14.6875 31 C 14.6875 31 19.679688 31.15625 22.484375 32.855469 C 24.5625 34.117188 25.390625 35.621094 25.761719 36.832031 C 26.128906 38.042969 26.011719 38.863281 26.011719 38.863281 L 26 38.933594 L 26 39 C 26 39 25.992188 40.246094 25.261719 41.496094 C 24.53125 42.746094 23.214844 44 20 44 C 17.777344 44 16.636719 43.503906 15.988281 43.011719 C 15.339844 42.515625 15.15625 42.035156 14.878906 41.527344 L 14.714844 41.21875 L 14.390625 41.078125 C 13.699219 40.785156 13.367188 40.359375 13.183594 39.882813 C 13.746094 39.953125 14.34375 40 15 40 C 17.839844 40 19.664063 39.746094 20.816406 39.472656 C 21.390625 39.335938 21.800781 39.195313 22.078125 39.078125 C 22.355469 38.960938 22.570313 38.820313 22.570313 38.820313 C 22.882813 38.625 23.058594 38.273438 23.035156 37.90625 C 23.007813 37.539063 22.785156 37.214844 22.449219 37.0625 C 22.113281 36.910156 21.722656 36.957031 21.429688 37.179688 C 21.429688 37.179688 21.464844 37.164063 21.296875 37.234375 C 21.132813 37.304688 20.835938 37.414063 20.355469 37.527344 C 19.398438 37.753906 17.722656 38 15 38 C 12.398438 38 10.878906 37.316406 9.992188 36.6875 C 9.265625 36.167969 9.171875 35.902344 9.097656 35.765625 C 9.164063 35.347656 9.363281 34.796875 9.738281 34.222656 C 9.953125 33.890625 10.1875 33.570313 10.394531 33.273438 C 10.601563 32.976563 10.789063 32.738281 10.9375 32.355469 C 11.246094 31.535156 11.585938 30.988281 11.828125 30.65625 C 11.875 30.601563 11.855469 30.632813 11.890625 30.589844 Z"/></svg>